<?xml version="1.0" standalone="no"?>
<!DOCTYPE svg PUBLIC "-//W3C//DTD SVG 20010904//EN"
 "http://www.w3.org/TR/2001/REC-SVG-20010904/DTD/svg10.dtd">
<svg version="1.0" xmlns="http://www.w3.org/2000/svg"
 width="556.000000pt" height="556.000000pt" viewBox="0 0 556.000000 556.000000"
 preserveAspectRatio="xMidYMid meet">
<metadata>
Created by potrace 1.16, written by Peter Selinger 2001-2019
</metadata>
<g transform="translate(0.000000,556.000000) scale(0.100000,-0.100000)"
fill="#000000" stroke="none">
<path d="M1065 5040 c-159 -33 -278 -129 -348 -280 -26 -56 -31 -80 -35 -167
-4 -85 -1 -112 18 -167 40 -122 128 -226 234 -278 l46 -22 0 -1136 0 -1136
-46 -22 c-57 -28 -144 -109 -183 -171 -42 -66 -71 -170 -71 -253 0 -82 35
-198 79 -262 211 -306 665 -273 828 61 38 78 38 79 38 203 0 123 -1 126 -36
201 -44 92 -128 180 -212 223 l-57 28 0 138 c0 123 2 140 20 163 24 30 287
163 530 268 91 39 205 92 253 117 173 90 322 263 436 504 60 125 118 295 141
403 l12 61 63 32 c90 47 167 126 212 220 38 77 38 78 38 202 0 123 -1 126 -37
202 -161 337 -616 371 -830 61 -44 -65 -78 -178 -78 -262 0 -164 96 -331 236
-412 l53 -30 -19 -67 c-46 -164 -97 -281 -181 -413 -90 -141 -142 -178 -419
-302 -69 -31 -186 -83 -260 -117 -74 -34 -143 -64 -152 -67 -17 -5 -18 36 -18
775 l0 781 59 31 c333 178 332 661 -1 840 -93 50 -216 70 -313 50z m196 -263
c165 -88 163 -328 -4 -412 -114 -56 -251 -13 -308 97 -60 117 -14 259 103 317
60 30 150 29 209 -2z m1392 -594 c20 -9 55 -35 76 -59 132 -150 27 -384 -172
-384 -72 0 -148 39 -191 98 -29 41 -31 49 -31 132 0 82 2 91 30 132 32 44 94
85 149 99 37 8 87 2 139 -18z m-1368 -2581 c99 -69 131 -193 76 -301 -58 -114
-204 -156 -316 -92 -28 16 -64 48 -80 72 -28 39 -30 49 -30 129 0 80 2 90 29
129 73 106 219 134 321 63z"/>
<path d="M3689 3150 c-147 -24 -338 -126 -439 -236 -68 -75 -134 -190 -167
-289 -22 -69 -26 -98 -27 -210 -1 -71 1 -149 4 -173 l5 -43 -65 -28 c-36 -16
-137 -59 -225 -96 -88 -37 -166 -72 -173 -78 -7 -6 -12 -22 -10 -36 3 -23 50
-67 201 -185 l27 -22 -115 -92 c-88 -71 -115 -98 -115 -116 0 -32 8 -37 140
-93 l115 -49 5 -319 c3 -176 7 -321 8 -321 1 -1 102 -44 225 -97 459 -198 719
-307 731 -307 6 0 128 50 270 110 143 61 355 151 473 201 117 50 214 92 215
92 1 1 5 146 8 322 l5 319 115 49 c131 56 140 61 140 92 0 18 -29 47 -115 116
l-115 93 27 22 c193 151 224 187 194 217 -6 6 -113 54 -238 108 -209 89 -228
99 -226 121 21 197 10 325 -38 454 -28 74 -126 220 -182 272 -94 85 -218 154
-342 188 -63 18 -243 26 -316 14z m191 -116 c57 -48 123 -172 144 -269 l7 -31
-107 9 c-59 4 -156 4 -216 0 l-110 -9 6 29 c10 48 58 160 87 203 42 62 85 94
124 94 21 0 45 -9 65 -26z m-272 -11 c-2 -5 -18 -36 -35 -70 -18 -34 -44 -101
-58 -149 -14 -48 -26 -88 -28 -89 -1 -1 -33 -9 -70 -18 -74 -18 -175 -59 -219
-89 l-27 -19 22 53 c36 88 117 199 189 258 75 63 240 152 226 123z m498 -30
c101 -49 210 -144 263 -228 40 -64 85 -155 79 -161 -2 -1 -39 15 -83 37 -44
21 -113 47 -154 57 l-74 18 -19 74 c-15 59 -50 144 -96 233 -6 12 6 8 84 -30z
m-58 -367 c15 -15 17 -43 17 -236 0 -142 -4 -223 -11 -230 -27 -27 -451 -27
-478 0 -13 13 -16 453 -3 466 16 16 106 23 280 20 152 -2 181 -5 195 -20z
m-584 -153 c-3 -76 -2 -175 3 -219 l9 -82 -51 14 c-27 8 -88 34 -134 57 -172
86 -189 183 -49 275 45 30 186 90 215 91 10 1 11 -31 7 -136z m788 110 c95
-35 179 -87 208 -130 51 -75 12 -144 -121 -210 -46 -23 -106 -49 -134 -56
l-50 -14 9 103 c5 62 5 150 0 219 -7 87 -6 115 3 115 6 0 45 -12 85 -27z
m-868 -484 c102 -29 116 -36 116 -57 0 -30 39 -142 75 -215 l34 -69 -27 7
c-90 21 -251 149 -323 255 -28 42 -79 144 -79 160 0 3 30 -8 67 -27 36 -18 98
-43 137 -54z m1050 39 c-61 -141 -189 -278 -317 -342 -96 -47 -105 -46 -74 7
28 48 87 209 87 238 0 22 8 26 130 63 47 15 108 39 135 55 28 15 52 26 54 24
2 -1 -4 -22 -15 -45z m-1318 -65 c9 -20 31 -60 49 -88 l33 -52 -145 -61 -146
-61 -83 65 c-46 36 -84 69 -84 73 0 4 19 14 43 23 23 9 103 43 177 76 74 33
136 61 138 61 2 1 10 -16 18 -36z m1679 -78 c50 -22 92 -41 95 -43 5 -4 -9
-16 -108 -94 l-60 -48 -145 62 -146 62 18 25 c10 14 32 54 50 88 l31 62 87
-38 c49 -21 129 -55 178 -76z m-765 44 c0 -16 -45 -140 -66 -182 -32 -61 -93
-123 -132 -132 -76 -16 -156 76 -211 244 -12 36 -21 67 -21 70 0 3 97 6 215 6
118 0 215 -3 215 -6z m-647 -282 c70 -47 158 -86 246 -108 122 -31 312 -24
426 15 93 32 214 101 270 155 l40 38 122 -51 121 -51 -282 -119 c-154 -66
-334 -142 -398 -169 l-117 -48 -394 168 -395 168 121 51 121 51 39 -36 c21
-20 57 -49 80 -64z m-69 -231 c213 -91 391 -168 395 -171 3 -4 -4 -14 -16 -23
-11 -9 -50 -40 -85 -68 l-64 -51 -280 119 c-153 65 -334 142 -401 170 -68 29
-123 55 -123 59 0 13 164 139 175 134 6 -2 185 -78 399 -169z m1573 37 c2 -5
-68 -39 -154 -75 -87 -37 -269 -113 -404 -171 l-246 -104 -87 71 c-73 59 -84
72 -69 78 10 4 193 82 407 172 l389 165 81 -63 c44 -35 81 -67 83 -73z m-1563
-364 c114 -49 218 -89 230 -89 11 0 64 34 116 76 l95 76 3 -196 c1 -108 1
-283 0 -390 l-3 -194 -280 119 c-154 66 -336 144 -405 173 l-125 54 -3 266 -2
265 82 -35 c46 -20 177 -76 292 -125z m1349 -370 c-5 -3 -62 -29 -128 -57
-321 -135 -469 -198 -570 -242 l-110 -47 -3 193 c-1 107 -1 282 0 389 l3 196
95 -75 c52 -42 104 -76 116 -76 11 0 151 56 310 123 l289 124 3 -260 c1 -144
-1 -264 -5 -268z"/>
</g>
</svg>
